<svg id="Layer_1" data-name="Layer 1" xmlns="http://www.w3.org/2000/svg" viewBox="0 0 474.47 132.61">
  <defs>
    <style>
      .cls-1 {
        fill: #231f20;
      }

      .cls-2 {
        isolation: isolate;
      }
    </style>
  </defs>
  <title>logo2</title>
  <path class="cls-1" d="M70.8,59.5c-6.1,0-14.4-4.6-16.6-10.5-5.4,4.9-11.4,9.5-15.8,15.3-1.7,2.2-2.9,4.7-4.7,6.8-1.6,1.9-22.6,19.4-23,19.4a1.9,1.9,0,0,1-1.8-2,8.4,8.4,0,0,1,.5-3.1c1.5-3.8,7-5.6,9.9-8.3,2-1.9,3.8-3.9,5.7-5.8,3.4-3.3,7-6.4,10.4-9.6a104.6,104.6,0,0,0,7.9-8.4c5-5.8,11-10.5,16.8-15.4,2.9-2.5,5.6-5.3,8.9-7.3,2.4-1.4,5.8-3,7.5-5.2C78.7,22.6,78.4,19,83,19a2.2,2.2,0,0,1,2,2.2C85,25.4,69,34,65.4,36.9c-3.1,2.5-5.4,5.7-7.9,8.8,0,5.1,8.8,9.3,13.2,9.3C81,55,93.81,36.4,93.81,26.9c0-9.7-17.11-15.4-25-15.4-5.6,0-11.1-1.1-16.7-1.1S41.4,12.7,36,13.5c-11.4,1.7-17.4,2.3-23.8,13-2,3.4-3.8,7.2-3.8,11.2,0,7.6,6.8,10.8,13.5,10.8,4.9,0,8.8-4.9,8.8-9.6a1.71,1.71,0,0,0-1.8-1.7c-2.8,0-3.2,3.5-5,3.5a2.12,2.12,0,0,1-2-2.2c0-3,4.9-6.7,7.7-6.7,3.3,0,5.2,2.8,5.2,5.9,0,7.1-5.3,15.2-13,15.2-9.2,0-17.4-5.1-17.4-15.1,0-4.9,2.1-9.5,4.5-13.7C15.9,11.9,22.8,10.8,35.8,9,41.2,8.2,46.5,5.9,52,5.9s11.2.9,16.8.9c10.7,0,28.91,7.3,28.91,20C97.71,38.3,83.31,59.5,70.8,59.5Z" transform="translate(-4.4 -5.9)"/>
  <path class="cls-1" d="M112.4,68.4c-1.3.6-2.8.6-4.2,1.1-3.9,1.3-7.4,3.7-11.7,3.7a1.72,1.72,0,0,1-1.6-1.6c0-1.1,6.5-9.5,7.6-10.9,0-.1.2-.6.2-.7a2.4,2.4,0,0,0-2.3-2.3c-3,0-8.4,8.4-12.1,8.4-.1,0-.2-.2-.3-.3l.4-.8c1.6-1.2,3.3-2.2,4.9-3.5,4.3-3.4,7.5-10,13.7-10a2.92,2.92,0,0,1,2.7,2.8c0,5.5-6.3,9.8-6.3,13.7,0,.5.6.4.9.4,4.7,0,8.2-1.7,12-4.1a11.12,11.12,0,0,1,3.4-1.8c0,.2.1.4.1.6C119.8,64.7,113.8,67.7,112.4,68.4Z" transform="translate(-4.4 -5.9)"/>
  <path class="cls-1" d="M158.6,66.3c-4.8,2.9-9.4,4.9-15.1,4.9a7.34,7.34,0,0,1-6.4-4.1c-.2-.4-.5-1.2-.7-1.5a1.68,1.68,0,0,0-1.2-.3c-5,0-7,6.1-13.3,6.1-3,0-6.6-.4-6.6-4.2,0-2.9,14.1-15.1,17.2-15.7a7.57,7.57,0,0,1,1.5-.1c2.7,0,3.1,1.6,4.4,1.6,2,0,3.4-2,5.4-2a10.72,10.72,0,0,1,8.4-3.3c2.6,0,6.5.3,6.5,3.8s-8.8,9.5-11.8,10.8a39.65,39.65,0,0,0-6.3,2.9,3.55,3.55,0,0,0-.2,1c0,1.5,3.1,2.3,4.3,2.3,6.1,0,15.3-5,16.3-5,.2,0,.3.2.3.4C161.3,64.8,159.3,65.9,158.6,66.3ZM134.5,54.6a4.1,4.1,0,0,0-1.1.1c-.6.2-11.3,9.1-11.4,9.5a5.66,5.66,0,0,0-.3,1.8c0,1.3,1.1,1.7,2.2,1.7,2.6,0,12.7-8.9,12.7-11.5C136.6,55.1,135.4,54.6,134.5,54.6Zm19.1-1.3a2.13,2.13,0,0,0-2.3-1.9,10.43,10.43,0,0,0-4.3,1c-1.8,1.1-5.7,5.7-5.7,7.9,0,.2.1.3.1.5l.7.3c1.4,0,8.2-3.7,9.3-4.8a28.77,28.77,0,0,0,2.2-2.7Z" transform="translate(-4.4 -5.9)"/>
  <path class="cls-1" d="M174.1,71.5c-1.6.6-3.3.9-4.9,1.4-3.3,5.8-5.6,7.6-12.4,7.6-.8,0-1.1-.3-1.1-1.1,0-3.6,9.3-7.8,12.3-8.9a13.21,13.21,0,0,0,1.6-6.1c0-1.7-.3-3.4-.3-5.1-3.2,1.2-9.6,7.1-12.3,7.1-.2,0-.4.1-.4-.2.7-1.3,1.2-1.4,2.4-2.1,4.9-3.1,8.3-8.5,12.9-11,.9-1.9,2.4-5.9,4.9-5.9.9,0,2.7.5,2.7,1.6,0,3-4,5.4-6.3,6.6-.9,1.7-1.9,3.5-1.9,5.5,0,1.3.4,2.5.4,3.8a16.32,16.32,0,0,1-.9,4.9c2.7-.8,5.5-1.2,8-2.6,2.1-1.1,3.9-2.8,6.1-3.7l.2.3C184,65.1,175.9,70.8,174.1,71.5Z" transform="translate(-4.4 -5.9)"/>
  <path class="cls-1" d="M338.91,28.6a365.92,365.92,0,0,1-40.41,3.8c-15.6.6-31,4-46.6,4-8,0-16-1.3-24-1.9-8.7,5-14.1,13.9-20.8,21.1a149.27,149.27,0,0,1-12.3,11.5c-2.9,2.5-12.5,13.2-15.6,13.2-1.1,0-2-.5-2-1.7,0-1.9,1.1-2.9,2.4-4.1,3.5-3.2,6.8-6.5,10.8-9.1,3.5-2.3,5.7-5.9,8.6-8.8,1.8-1.8,3.9-3.4,5.6-5.3,4.7-5.2,8.3-11.3,12.9-16.5-8.3-2.1-16.7-4-25.3-4-5.3,0-10.5-1.2-15.8-1.2-4.3,0-28.21.2-28.21,5.6,0,2.2,3.8,1.9,4.5,4.2a1.71,1.71,0,0,1-1.3.7c-2.2,0-10.8-3.3-10.8-5.8,0-3,10.6-4.8,13-5.3,7-1.4,14.11-1.3,21.21-1.3,8.6,0,17,1.2,25.6,1.2,7,0,13.7,2.3,20.6,3.1,3.4-2.9,7.2-5.1,10.8-7.8,5.5-4.1,11-11.2,18.4-11.2,1.1,0,3.7.5,3.7,2,0,4.7-19.3,14.3-23.5,17.1,6.9.2,13.7,1.7,20.6,1.7,9,0,17.9-1.8,26.9-2.6,7-.6,13.9-.4,20.9-.7,6.7-.3,13.4-1.2,20-2.1,6-.8,12.11-1.4,18.11-2.5,3.6-.7,7.1-2,10.8-2,1.2,0,3,.1,3,1.7S340.61,28.3,338.91,28.6Z" transform="translate(-4.4 -5.9)"/>
  <path class="cls-1" d="M246.8,64.8c-3.7,2.3-8.2,2.6-11.6,5.3s-7,5.3-10.4,8.1a356.61,356.61,0,0,0-30.9,29.3c-3.51,3.7-6.81,7.4-10.61,10.8-3,2.7-6.5,5.1-9,8.3a43.45,43.45,0,0,1-3.3,4.2c-1,1-7.7,6.3-8.8,6.7a20.52,20.52,0,0,1-6.5,1c-.8,0-2.8-1.3-2.8-2.2,0-1.5,4.7-7.8,5.8-9.2,16-20.2,40.21-39.3,62.81-51.1,1.8-.9,4-2.6,4-4.9a3.19,3.19,0,0,0-1.4-.3c-3.8,0-7.2,1.8-11,1.8a4.49,4.49,0,0,1-2.3-.4,5.85,5.85,0,0,1-.2-1.3c0-1.7,3.6-6.5,4.8-7.9-1.8.4-7.5,3.4-8.1,3.4-.1,0-.2-.1-.3-.1a8.64,8.64,0,0,1,3.3-3c3.1-1.7,6.6-2.3,9.8-3.5,4.7-1.7,11.1-4.2,16.1-4.2.5,0,2.3.2,2.3.9,0,1.5-4.2,5-5.6,5.5-2.4.9-10.1.7-10.1,4.4.1.4.5.6.8.8,2.9,0,6.5-1.8,9.2-1.2a19,19,0,0,1,5.8-.5,15.87,15.87,0,0,0,6.1-.9c.7-.3,2.8-1.8,3.4-1.8s.5-.1.5.3S247.2,64.6,246.8,64.8ZM212,83c-10.2,3.1-32.91,23.5-40.81,31.8-2.7,2.8-4.9,6.1-7.5,9-1.3,1.5-7.3,8.1-7.3,9.6,0,.8,1.6,1.3,2.2,1.3,2.5,0,15.3-10.8,17.6-13.1,5.9-6.1,11.6-12.3,17.71-18.2,3.7-3.5,7.6-6.8,11.2-10.5.9-.9,7.7-8.5,7.7-8.9A1.19,1.19,0,0,0,212,83Z" transform="translate(-4.4 -5.9)"/>
  <path class="cls-1" d="M271.2,67.7c-1.6,0-5.5-.6-6.7-1.6-.4-.4-.7-.8-1.3-.8-3.8,0-6.5,6.1-12.6,6.1-3,0-6.6-.4-6.6-4.2,0-2.9,14.1-15.1,17.2-15.7a7.57,7.57,0,0,1,1.5-.1c2.7,0,3.1,1.6,4.4,1.6,2,0,3.5-2,5.2-2,.8,0,2.2,0,2.2,1.1,0,2.1-5.8,6-5.8,9.1a3.73,3.73,0,0,0,3.9,3.9c2.2,0,3.2-1.6,5.1-2.2l.5.4C277.9,64.8,272.7,67.7,271.2,67.7Zm-8-13.1a4.1,4.1,0,0,0-1.1.1c-.6.2-11.3,9.1-11.4,9.5a5.66,5.66,0,0,0-.3,1.8c0,1.3,1.1,1.7,2.2,1.7,2.6,0,12.7-8.9,12.7-11.5C265.3,55.1,264.1,54.6,263.2,54.6Z" transform="translate(-4.4 -5.9)"/>
  <path class="cls-1" d="M298.1,68.4c-1.3.6-2.8.6-4.2,1.1-3.9,1.3-7.4,3.7-11.7,3.7a1.72,1.72,0,0,1-1.6-1.6c0-1.1,6.5-9.5,7.6-10.9,0-.1.2-.6.2-.7a2.4,2.4,0,0,0-2.3-2.3c-3,0-8.4,8.4-12.1,8.4-.11,0-.21-.2-.3-.3l.4-.8c1.6-1.2,3.3-2.2,4.9-3.5,4.3-3.4,7.5-10,13.7-10a2.92,2.92,0,0,1,2.7,2.8c0,5.5-6.3,9.8-6.3,13.7,0,.5.6.4.9.4,4.7,0,8.2-1.7,12-4.1a11.12,11.12,0,0,1,3.4-1.8c0,.2.1.4.1.6C305.5,64.7,299.5,67.7,298.1,68.4Z" transform="translate(-4.4 -5.9)"/>
  <path class="cls-1" d="M336,34.8c-2,3.2-10.2,12.4-14.3,15.6-.4,0-1.2-.1-1.2-.7a86.11,86.11,0,0,0,11.2-13.3c6.1-9.7,11-19.8,12.5-19.8a2.1,2.1,0,0,1,1.9,2.2C346.1,21.5,337.8,32.1,336,34.8Z" transform="translate(-4.4 -5.9)"/>
  <path class="cls-1" d="M354.6,69.9c-1.1,0-2.2-.3-3.3-.3-3.51,0-.9-6.7-3.8-6.7-4.11,0-18.41,11.4-20.71,11.4a1.63,1.63,0,0,1-1.7-1.7c0-4.3,6-5.3,6-10.5,0-.6-.2-.9-.8-.9-4.7,0-5.8,1.3-9.6,3.6-.9.6-2,1-2.9,1.6l-.4-.2c0-.4,0-.7.4-.9a10.31,10.31,0,0,1,2.8-1.8c4.5-2.6,11.8-9.5,17-9.5,1.3,0,4.11.2,4.11,2s-3.5,4.4-3.5,5.7c0,.7.3,1.6,1.19,1.6,3.81,0,11-7.5,16.31-7.5,1.7,0,2.6.1,2.6,2.1,0,3.5-2.9,5.3-3.1,7.3l.4.7a14.28,14.28,0,0,0,2.9.3c4.8,0,7.1-1.4,11.2-3.3l.1.1C369.8,66.2,357.5,69.9,354.6,69.9Z" transform="translate(-4.4 -5.9)"/>
  <g class="cls-2">
    <path class="cls-1" d="M239.42,102.56c0-.25-.3-.4-2.7-.8-.2-.05-.25-.15-.1-.4.4-.9.45-1,.65-1,1.95-.65,3.75-1.25,5.95-2h.2c.1,0,.15.1.1.4-.2,3.4-.45,10.1-.45,12.7s0,3.45.05,4,.2,1,.75,1c1.55-.1,1.9-.1,2-.1s.45.3.4.45l-.15,1.3c0,.3-.15.3-.4.3-1.45,0-2.85-.1-4.45-.1a40.66,40.66,0,0,0-4.35.3c-.25,0-.35,0-.4-.25a4.67,4.67,0,0,1-.1-1.15.23.23,0,0,1,.25-.25c1.8-.2,2.25-.35,2.5-1.75a43.51,43.51,0,0,0,.35-7.5Zm5.05-13.3A2.5,2.5,0,0,1,242,92a2.17,2.17,0,0,1-2.2-2.25,2.62,2.62,0,0,1,2.5-2.7A2.17,2.17,0,0,1,244.47,89.26Z" transform="translate(-4.4 -5.9)"/>
  </g>
  <g class="cls-2">
    <path class="cls-1" d="M261.17,119.11a5.64,5.64,0,0,1-.3-1.8,58.73,58.73,0,0,0-.85-7.4c-.1-.35,0-.45.2-.5a7.3,7.3,0,0,1,1.1-.15c.2,0,.35.1.5.6a9,9,0,0,0,1.45,3.2,10.58,10.58,0,0,0,8.25,4.3c4.45,0,7.55-2.9,7.55-7a5.06,5.06,0,0,0-2.25-4.2c-1-.8-2.3-1.5-6.25-3-3.45-1.3-5.9-2.45-7.5-4.35a8.35,8.35,0,0,1-1.85-5,7.74,7.74,0,0,1,4.2-7.2A17.08,17.08,0,0,1,272.77,85a40.29,40.29,0,0,1,4.8.4,5.71,5.71,0,0,0,1.4.15c.35,0,.8-.4,1.25-1a4,4,0,0,1,1.2,0,34.19,34.19,0,0,0,.45,7.85c.05.3,0,.5-.2.6a2.74,2.74,0,0,1-1.15.5c-.15,0-.2,0-.25-.25-.55-1.75-1-3.45-2.4-4.65-1.05-1-3.55-1.85-6.1-1.85-3.8,0-6.25,2.45-6.25,5.75a5.53,5.53,0,0,0,1.35,3.65c1.25,1.25,2.65,2.1,6.4,3.45s6,2.5,7.5,3.9a7.49,7.49,0,0,1,2.65,6.1,8.53,8.53,0,0,1-4.4,7.7c-2.25,1.25-6.6,1.8-8.3,1.8a34.45,34.45,0,0,1-6.45-.75,1.3,1.3,0,0,0-.9.1,8.36,8.36,0,0,0-1,.65.92.92,0,0,1-.65.3C261.57,119.41,261.42,119.36,261.17,119.11Z" transform="translate(-4.4 -5.9)"/>
  </g>
  <g class="cls-2">
    <path class="cls-1" d="M287,117.16c1.6-.6,2.15-1,2.35-2.3a64,64,0,0,0,.3-6.9c0-1.95-.05-3.65-.15-4.6,0-.5-.2-.65-2.45-1.2-.2-.25-.3-.15-.15-1,0-.15.15-.25.5-.4,2.1-1,4.3-2.2,4.55-2.4a1.33,1.33,0,0,1,.6-.15c.2,0,.45.15.45.35,0,.85.1,1.75.1,2.65,0,.2.05.45.3.4a37.24,37.24,0,0,1,4.35-2.25,7,7,0,0,1,2.8-.7,5,5,0,0,1,3.4,1.1c1.35,1,2,2.8,2.25,5,.1,1,.1,2.25.1,4.4,0,3.6.05,5.8.05,7,0,.4.05.5.2.5.45,0,1.85-.15,2.65-.2.15,0,.25.15.25.45a4.62,4.62,0,0,1-.25,1.25c-.1.25-.15.25-.4.25-4.45,0-5.95.2-7.85.2-.3,0-.55,0-.6-.2l-.25-1c1.45-.55,2-1,2.25-2.35a53.31,53.31,0,0,0,.25-6.8c0-2.8,0-4.2-1.2-5.45a4.37,4.37,0,0,0-3.35-1.25,10.4,10.4,0,0,0-4.15,1.35,1.45,1.45,0,0,0-.6,1.25c-.1,1.7-.1,8.85-.1,11.55,0,.65.15.75,2.75,1.15.25,0,.35.15.25.4l-.25,1.05h-4.3c-1.95,0-3.6.25-4.55.25q-.22,0-.15-.3Z" transform="translate(-4.4 -5.9)"/>
  </g>
  <g class="cls-2">
    <path class="cls-1" d="M325.92,100.16a8.64,8.64,0,0,1,1.95,3.3c.5-.1,1.45-.3,1.6-.15s.15.25,0,.45c-.1.45-.45,1.35-.9,1.5-3.45.8-9.85,2-12,2.65-.25,0-.35.35-.35.9.15,4.9,2.75,7,6.1,7a8.85,8.85,0,0,0,5.95-2.45c.2-.2.8-.2.8,0-.1,1.2-.15,1.55-.45,1.85a18,18,0,0,1-6.2,3.3,6.52,6.52,0,0,1-1.85.25,8.81,8.81,0,0,1-6.4-2.8,9.7,9.7,0,0,1-2.2-6.3,12.08,12.08,0,0,1,5.2-9.65,8.69,8.69,0,0,1,4.45-1.55A6.63,6.63,0,0,1,325.92,100.16Zm-5.9.15a2.54,2.54,0,0,0-1.25.45c-1.5,1-2.3,3.55-2.25,5.65,2.35-.65,4.65-1,6.9-1.6.3,0,.55-.25.55-.8A4.47,4.47,0,0,0,320,100.31Z" transform="translate(-4.4 -5.9)"/>
  </g>
  <g class="cls-2">
    <path class="cls-1" d="M332.77,116.76c1.2-.4,1.4-.55,1.5-1.2a54.08,54.08,0,0,0,.15-6.25v-4.4c0-1.2-.1-1.5-2.05-2a1.23,1.23,0,0,1-.6-1.15c2-1.2,4-2.2,5.5-3.25a1.34,1.34,0,0,1,.65-.2c.2,0,.45.35.35.8-.1,1.3-.2,2.2-.2,3.75a42.48,42.48,0,0,0,4.7-3.4,2.79,2.79,0,0,1,1.45-.7,2.85,2.85,0,0,1,2.75,2.4c0,.75-1.2,2.2-1.65,2.6a1.85,1.85,0,0,1-.85.4.68.68,0,0,1-.65-.35,2.55,2.55,0,0,0-1.9-1.15,5.84,5.84,0,0,0-3.35,1.7c-.35.3-.45,1-.45,3.3v6.25a5.73,5.73,0,0,0,.2,2.15c.15.25.35.4.85.35l2.75-.1a.48.48,0,0,1,.4.45l-.3,1.55h-6.6c-1.3,0-2.55.1-2.9.1-.2,0-.3-.15-.2-.45Z" transform="translate(-4.4 -5.9)"/>
    <path class="cls-1" d="M355.42,95.51c0,.65-.25,3.25-.25,3.75,2.4,0,5.35-.25,7.1-.25.5,0,.55.1.55.55a7.13,7.13,0,0,1-.3,1.7c-.1.4-.35.45-.75.45-1.45.05-3.8.05-6.45.15-.15,0-.25.1-.3.7-.15,2.25-.1,7.45-.1,10.2,0,2.25,1.45,3.45,3.7,3.45a5.44,5.44,0,0,0,3.15-1.15c.25-.15.35-.15.4,0a3.14,3.14,0,0,1,.15,1,.61.61,0,0,1-.35.55c-1.9,1.1-3.85,2.2-6.25,2.2a5.32,5.32,0,0,1-3.8-1.6c-.65-.8-.8-1.75-.7-3.65.1-2.7.1-9.6.2-11a.67.67,0,0,0-.45-.7c-.7,0-1.7,0-2.05,0-.15,0-.4-.4-.25-.5,1.85-1.65,4.95-4.65,6.05-5.8a1,1,0,0,1,.55-.3Q355.42,95.21,355.42,95.51Z" transform="translate(-4.4 -5.9)"/>
  </g>
  <g class="cls-2">
    <path class="cls-1" d="M367.57,102.56c0-.25-.3-.4-2.7-.8-.2-.05-.25-.15-.1-.4.4-.9.45-1,.65-1,1.95-.65,3.75-1.25,5.95-2h.2c.1,0,.15.1.1.4-.2,3.4-.45,10.1-.45,12.7s0,3.45,0,4,.2,1,.75,1c1.55-.1,1.9-.1,2.05-.1s.45.3.4.45l-.15,1.3c-.05.3-.15.3-.4.3-1.45,0-2.85-.1-4.45-.1a40.66,40.66,0,0,0-4.35.3c-.25,0-.35,0-.4-.25a4.67,4.67,0,0,1-.1-1.15.23.23,0,0,1,.25-.25c1.8-.2,2.25-.35,2.5-1.75a43.51,43.51,0,0,0,.35-7.5Zm5.05-13.3a2.5,2.5,0,0,1-2.5,2.7,2.17,2.17,0,0,1-2.2-2.25,2.62,2.62,0,0,1,2.5-2.7A2.17,2.17,0,0,1,372.62,89.26Z" transform="translate(-4.4 -5.9)"/>
  </g>
  <g class="cls-2">
    <path class="cls-1" d="M377.42,117.16c1.6-.6,2.15-1,2.35-2.3a64,64,0,0,0,.3-6.9c0-1.95-.05-3.65-.15-4.6,0-.5-.2-.65-2.45-1.2-.2-.25-.3-.15-.15-1,0-.15.15-.25.5-.4,2.1-1,4.3-2.2,4.55-2.4a1.33,1.33,0,0,1,.6-.15c.2,0,.45.15.45.35.05.85.1,1.75.1,2.65,0,.2.05.45.3.4a37.24,37.24,0,0,1,4.35-2.25,7,7,0,0,1,2.8-.7,5,5,0,0,1,3.4,1.1c1.35,1,2,2.8,2.25,5,.1,1,.1,2.25.1,4.4,0,3.6,0,5.8,0,7,0,.4.05.5.2.5.45,0,1.85-.15,2.65-.2.15,0,.25.15.25.45a4.62,4.62,0,0,1-.25,1.25c-.1.25-.15.25-.4.25-4.45,0-6,.2-7.85.2-.3,0-.55,0-.6-.2l-.25-1c1.45-.55,2-1,2.25-2.35a53.31,53.31,0,0,0,.25-6.8c0-2.8,0-4.2-1.2-5.45a4.37,4.37,0,0,0-3.35-1.25,10.4,10.4,0,0,0-4.15,1.35,1.45,1.45,0,0,0-.6,1.25c-.1,1.7-.1,8.85-.1,11.55,0,.65.15.75,2.75,1.15.25,0,.35.15.25.4l-.25,1.05h-4.3c-1.95,0-3.6.25-4.55.25q-.22,0-.15-.3Z" transform="translate(-4.4 -5.9)"/>
  </g>
  <g class="cls-2">
    <path class="cls-1" d="M415.62,99.31a1.83,1.83,0,0,0,.9.2c.8,0,3.75-.6,4.75-.6a1.37,1.37,0,0,1,1,.65c.05.2.2,1.4.2,1.6s-.25.6-.85.6-2.05,0-4.25,0a7.5,7.5,0,0,1,1.35,3.95c0,3.5-2.55,6.6-6.4,8.15a38.7,38.7,0,0,0-4.1,1.85.87.87,0,0,0-.45.7c0,.9,1.2,1.3,2.55,1.3.6,0,3.75-.1,4.2-.1a9.2,9.2,0,0,1,5.7,1.55,4.33,4.33,0,0,1,1.4,3.5c0,1.6-.45,2.45-1.8,4a14.16,14.16,0,0,1-6.15,4.5,18.64,18.64,0,0,1-4.9.75c-5.4,0-7.55-2.65-7.55-4.65a4.53,4.53,0,0,1,1.9-3.9c1.2-.9,2.2-1.55,3.75-2.55-2.2-1-3.4-1.65-3.4-3.15a1.41,1.41,0,0,1,.35-1,42.56,42.56,0,0,1,4.75-2.6,8.66,8.66,0,0,1-4-2,6.81,6.81,0,0,1-2.25-5c0-3,1.65-5.1,3.9-6.7a10.2,10.2,0,0,1,5.6-2A8.69,8.69,0,0,1,415.62,99.31Zm1.5,28.1a4.15,4.15,0,0,0,1.75-3,2.45,2.45,0,0,0-1.05-2.25,7.63,7.63,0,0,0-4.3-1,24.57,24.57,0,0,0-5,.45,4.32,4.32,0,0,0-2,1.2,4.52,4.52,0,0,0-1.8,3.15c0,.9,1.1,3.45,6.1,3.45C413.77,129.31,415.82,128.61,417.12,127.41Zm-3-24.7a5.11,5.11,0,0,0-4.4-2.4,3.66,3.66,0,0,0-2.55,1.1,4.31,4.31,0,0,0-1.3,3.4,7.51,7.51,0,0,0,2.25,5.45,5.56,5.56,0,0,0,3.7,1.7c1.8,0,3.55-1.1,3.55-4.45A9.3,9.3,0,0,0,414.12,102.71Z" transform="translate(-4.4 -5.9)"/>
  </g>
  <g class="cls-2">
    <path class="cls-1" d="M427.17,102c1.75-1.6,5.3-3.45,7.65-3.45a13.12,13.12,0,0,1,3.55.5.48.48,0,0,0,.5-.4c.05-.7.1-1.7.1-3.5a61.28,61.28,0,0,0-.15-6.75c-.05-.7-.15-.9-2.4-1.25a.48.48,0,0,1-.4-.4l-.1-.35c-.05-.2-.05-.3.1-.4a39.74,39.74,0,0,0,5.85-2.8,1.48,1.48,0,0,1,.65-.1c.2,0,.35.4.35.8-.05,4.5-.3,14.75-.3,20.55v6a42.34,42.34,0,0,0,.25,5.3c.15.65.4.75.7.75a7.79,7.79,0,0,0,2.25-.7c.25,0,.5-.1.55.1a5.52,5.52,0,0,1,.25,1.45c0,.4-.3.45-.65.55a56.49,56.49,0,0,1-6,1.35,1.22,1.22,0,0,1-.95-1c-.05-.75-.1-1.9-.1-2.55-3.75,1.9-6.75,3-7.4,3a8.07,8.07,0,0,1-5.15-2.25,9.58,9.58,0,0,1-2.85-6.5A10.58,10.58,0,0,1,427.17,102Zm1.9.4a6.68,6.68,0,0,0-1.8,4.75c0,1.25.2,4.75,2.75,7a5.59,5.59,0,0,0,4.1,1.5,10.17,10.17,0,0,0,4-1.1c.5-.3.6-.4.65-.75a70.54,70.54,0,0,0,0-10.3c-.05-.5-.1-.75-.8-1.25a9.67,9.67,0,0,0-5.3-1.45A5.49,5.49,0,0,0,429.07,102.36Z" transform="translate(-4.4 -5.9)"/>
  </g>
  <g class="cls-2">
    <path class="cls-1" d="M450.52,104.51a2.83,2.83,0,0,1-.9.15.88.88,0,0,1-.6-.65,2.25,2.25,0,0,1,.45-1.15c.9-1.4,4.55-3.55,5.85-4a7.83,7.83,0,0,1,2.75-.6,5.09,5.09,0,0,1,4.15,1.8,3.34,3.34,0,0,1,.95,2.45c0,3.5-.1,7-.1,10.3-.05,2.7.45,3.65,1.2,3.65a8.2,8.2,0,0,0,2.45-.7c.15-.1.5.3.5.5l-.1.85a.57.57,0,0,1-.3.55,18.29,18.29,0,0,1-5.55,1.25c-.9,0-1.65-.45-2.1-2.6a48,48,0,0,1-6.3,2.5,4.64,4.64,0,0,1-2.85-1,5.28,5.28,0,0,1-1.45-3.9c0-1,.8-1.9,2.15-2.6a29.66,29.66,0,0,1,8.6-2.65,26.21,26.21,0,0,0,.15-3.6c0-2.1-.4-3.25-.85-3.65a4.78,4.78,0,0,0-2.8-.8,4.87,4.87,0,0,0-2,.35c-.2.15-.35.5-.35,2.1,0,.35,0,.55-.3.65Zm7.65,10.75c.6-.45,1-.75,1.1-1.35s.15-2.5.15-3.2c0-.35-.1-.55-.25-.55-3,.45-4.8,1-5.9,1.9-.3.2-.5.55-.5,1.45,0,1.7.5,2.75,2.25,2.75A12.39,12.39,0,0,0,458.17,115.26Z" transform="translate(-4.4 -5.9)"/>
  </g>
  <g class="cls-2">
    <path class="cls-1" d="M468.42,118a1.84,1.84,0,0,1,.2-.9,8.51,8.51,0,0,1,1.2-.45c1-.35,1.2-.65,1.25-1.3.3-6.1.45-14.8.45-18.85,0-3.5,0-6.1-.1-7.6s-.5-1.55-2.75-1.75c-.2,0-.2-.1.05-1.1,0-.1.15-.2.5-.3a61.22,61.22,0,0,0,6.1-2.5.38.38,0,0,1,.2-.05c.15.05.15.15.15.4-.45,6.4-.6,16.2-.6,25.5,0,6.4.15,7.4,1.4,7.4.7,0,1.9-.1,2.1-.1s.3,0,.3.3a9.32,9.32,0,0,1-.25,1.35c-.05.2-.2.2-.4.2-1.7,0-8,.15-9.65.35-.15,0-.2,0-.2-.2Z" transform="translate(-4.4 -5.9)"/>
  </g>
</svg>
