<svg id="Layer_1" data-name="Layer 1" xmlns="http://www.w3.org/2000/svg" viewBox="0 0 474.47 132.61">
  <defs>
    <style>
      .cls-1 {
        fill: #fff;
      }
    </style>
  </defs>
  <title>Artboard 1</title>
  <path class="cls-1" d="M66.4,53.6C60.3,53.6,52,49,49.8,43.1,44.4,48,38.4,52.6,34,58.4c-1.7,2.2-2.9,4.7-4.7,6.8-1.6,1.9-22.6,19.4-23,19.4a1.9,1.9,0,0,1-1.8-2h0A8.37,8.37,0,0,1,5,79.5c1.5-3.8,7-5.6,9.9-8.3,2-1.9,3.8-3.9,5.7-5.8,3.4-3.3,7-6.4,10.4-9.6a104.49,104.49,0,0,0,7.9-8.4c5-5.8,11-10.5,16.8-15.4,2.9-2.5,5.6-5.3,8.9-7.3,2.4-1.4,5.8-3,7.5-5.2,2.2-2.8,1.9-6.4,6.5-6.4a2.2,2.2,0,0,1,2,2.2c0,4.2-16,12.8-19.6,15.7-3.1,2.5-5.4,5.7-7.9,8.8,0,5.1,8.8,9.3,13.2,9.3,10.3,0,23.11-18.6,23.11-28.1,0-9.7-17.11-15.4-25-15.4-5.6,0-11.1-1.1-16.7-1.1S37,6.8,31.6,7.6C20.2,9.3,14.2,9.9,7.8,20.6,5.8,24,4,27.8,4,31.8c0,7.6,6.8,10.8,13.5,10.8,4.9,0,8.8-4.9,8.8-9.6a1.7,1.7,0,0,0-1.72-1.7H24.5c-2.8,0-3.2,3.5-5,3.5a2.11,2.11,0,0,1-2-2.2c0-3,4.9-6.7,7.7-6.7,3.3,0,5.2,2.8,5.2,5.9,0,7.1-5.3,15.2-13,15.2C8.2,47,0,41.9,0,31.9,0,27,2.1,22.4,4.5,18.2,11.5,6,18.4,4.9,31.4,3.1,36.8,2.3,42.1,0,47.6,0S58.8.9,64.4.9c10.7,0,28.91,7.3,28.91,20C93.31,32.4,78.91,53.6,66.4,53.6Z"/>
  <path class="cls-1" d="M108,62.5c-1.3.6-2.8.6-4.2,1.1-3.9,1.3-7.4,3.7-11.7,3.7a1.72,1.72,0,0,1-1.6-1.6c0-1.1,6.5-9.5,7.6-10.9,0-.1.2-.6.2-.7A2.4,2.4,0,0,0,96,51.8c-3,0-8.4,8.4-12.1,8.4-.1,0-.2-.2-.3-.3l.4-.8c1.6-1.2,3.3-2.2,4.9-3.5,4.3-3.4,7.5-10,13.7-10a2.93,2.93,0,0,1,2.7,2.8c0,5.5-6.3,9.8-6.3,13.7,0,.5.6.4.9.4,4.7,0,8.2-1.7,12-4.1a11.22,11.22,0,0,1,3.4-1.8c0,.2.1.4.1.6C115.4,58.8,109.4,61.8,108,62.5Z"/>
  <path class="cls-1" d="M154.2,60.4c-4.8,2.9-9.4,4.9-15.1,4.9a7.34,7.34,0,0,1-6.4-4.1c-.2-.4-.5-1.2-.7-1.5a1.66,1.66,0,0,0-1.2-.3c-5,0-7,6.1-13.3,6.1-3,0-6.6-.4-6.6-4.2,0-2.9,14.1-15.1,17.2-15.7a7.57,7.57,0,0,1,1.5-.1c2.7,0,3.1,1.6,4.4,1.6,2,0,3.4-2,5.4-2a10.73,10.73,0,0,1,8.4-3.3c2.6,0,6.5.3,6.5,3.8s-8.8,9.5-11.8,10.8a39.45,39.45,0,0,0-6.3,2.9,3.78,3.78,0,0,0-.2,1c0,1.5,3.1,2.3,4.3,2.3,6.1,0,15.3-5,16.3-5,.2,0,.3.2.3.4C156.9,58.9,154.9,60,154.2,60.4ZM130.1,48.7a4.07,4.07,0,0,0-1.1.1c-.6.2-11.3,9.1-11.4,9.5a5.53,5.53,0,0,0-.3,1.8c0,1.3,1.1,1.7,2.2,1.7,2.6,0,12.7-8.9,12.7-11.5C132.2,49.2,131,48.7,130.1,48.7Zm19.1-1.3a2.13,2.13,0,0,0-2.3-1.9,10.34,10.34,0,0,0-4.3,1c-1.8,1.1-5.7,5.7-5.7,7.9,0,.2.1.3.1.5l.7.3c1.4,0,8.2-3.7,9.3-4.8a28.48,28.48,0,0,0,2.2-2.7Z"/>
  <path class="cls-1" d="M169.7,65.6c-1.6.6-3.3.9-4.9,1.4-3.3,5.8-5.6,7.6-12.4,7.6-.8,0-1.1-.3-1.1-1.1,0-3.6,9.3-7.8,12.3-8.9a13.14,13.14,0,0,0,1.6-6.1c0-1.7-.3-3.4-.3-5.1-3.2,1.2-9.6,7.1-12.3,7.1-.2,0-.4.1-.4-.2.7-1.3,1.2-1.4,2.4-2.1,4.9-3.1,8.3-8.5,12.9-11,.9-1.9,2.4-5.9,4.9-5.9.9,0,2.7.5,2.7,1.6,0,3-4,5.4-6.3,6.6-.9,1.7-1.9,3.5-1.9,5.5,0,1.3.4,2.5.4,3.8a16.38,16.38,0,0,1-.9,4.9c2.7-.8,5.5-1.2,8-2.6,2.1-1.1,3.9-2.8,6.1-3.7l.2.3C179.6,59.2,171.5,64.9,169.7,65.6Z"/>
  <path class="cls-1" d="M334.51,22.7a367.21,367.21,0,0,1-40.41,3.8c-15.6.6-31,4-46.6,4-8,0-16-1.3-24-1.9-8.7,5-14.1,13.9-20.8,21.1a150.21,150.21,0,0,1-12.3,11.5c-2.9,2.5-12.5,13.2-15.6,13.2-1.1,0-2-.5-2-1.7,0-1.9,1.1-2.9,2.4-4.1,3.5-3.2,6.8-6.5,10.8-9.1,3.5-2.3,5.7-5.9,8.6-8.8,1.8-1.8,3.9-3.4,5.6-5.3,4.7-5.2,8.3-11.3,12.9-16.5-8.3-2.1-16.7-4-25.3-4-5.3,0-10.5-1.2-15.8-1.2-4.3,0-28.21.2-28.21,5.6,0,2.2,3.8,1.9,4.5,4.2a1.69,1.69,0,0,1-1.3.7c-2.2,0-10.8-3.3-10.8-5.8,0-3,10.6-4.8,13-5.3,7-1.4,14.11-1.3,21.21-1.3,8.6,0,17,1.2,25.6,1.2,7,0,13.7,2.3,20.6,3.1,3.4-2.9,7.2-5.1,10.8-7.8,5.5-4.1,11-11.2,18.4-11.2,1.1,0,3.7.5,3.7,2,0,4.7-19.3,14.3-23.5,17.1,6.9.2,13.7,1.7,20.6,1.7,9,0,17.9-1.8,26.9-2.6,7-.6,13.9-.4,20.9-.7,6.7-.3,13.4-1.2,20-2.1,6-.8,12.11-1.4,18.11-2.5,3.6-.7,7.1-2,10.8-2,1.2,0,3,.1,3,1.7S336.21,22.4,334.51,22.7Z"/>
  <path class="cls-1" d="M242.4,58.9c-3.7,2.3-8.2,2.6-11.6,5.3s-7,5.3-10.4,8.1a357.82,357.82,0,0,0-30.9,29.3c-3.51,3.7-6.81,7.4-10.61,10.8-3,2.7-6.5,5.1-9,8.3a41.75,41.75,0,0,1-3.3,4.2c-1,1-7.7,6.3-8.8,6.7a20.48,20.48,0,0,1-6.5,1c-.8,0-2.8-1.3-2.8-2.2,0-1.5,4.7-7.8,5.8-9.2,16-20.2,40.21-39.3,62.81-51.1,1.8-.9,4-2.6,4-4.9a3.24,3.24,0,0,0-1.4-.3c-3.8,0-7.2,1.8-11,1.8a4.55,4.55,0,0,1-2.3-.4,5.68,5.68,0,0,1-.2-1.3c0-1.7,3.6-6.5,4.8-7.9-1.8.4-7.5,3.4-8.1,3.4-.1,0-.2-.1-.3-.1a8.66,8.66,0,0,1,3.3-3c3.1-1.7,6.6-2.3,9.8-3.5,4.7-1.7,11.1-4.2,16.1-4.2.5,0,2.3.2,2.3.9,0,1.5-4.2,5-5.6,5.5-2.4.9-10.1.7-10.1,4.4.1.4.5.6.8.8,2.9,0,6.5-1.8,9.2-1.2a19.19,19.19,0,0,1,5.8-.5,15.82,15.82,0,0,0,6.1-.9c.7-.3,2.8-1.8,3.4-1.8s.5-.1.5.3S242.8,58.7,242.4,58.9ZM207.6,77.1c-10.2,3.1-32.91,23.5-40.81,31.8-2.7,2.8-4.9,6.1-7.5,9-1.3,1.5-7.3,8.1-7.3,9.6,0,.8,1.6,1.3,2.2,1.3,2.5,0,15.3-10.8,17.6-13.1,5.9-6.1,11.6-12.3,17.71-18.2,3.7-3.5,7.6-6.8,11.2-10.5.9-.9,7.7-8.5,7.7-8.9A1.19,1.19,0,0,0,207.6,77.1Z"/>
  <path class="cls-1" d="M266.8,61.8c-1.6,0-5.5-.6-6.7-1.6-.4-.4-.7-.8-1.3-.8-3.8,0-6.5,6.1-12.6,6.1-3,0-6.6-.4-6.6-4.2,0-2.9,14.1-15.1,17.2-15.7a7.57,7.57,0,0,1,1.5-.1c2.7,0,3.1,1.6,4.4,1.6,2,0,3.5-2,5.2-2,.8,0,2.2,0,2.2,1.1,0,2.1-5.8,6-5.8,9.1a3.73,3.73,0,0,0,3.55,3.9h.35c2.2,0,3.2-1.6,5.1-2.2l.5.4C273.5,58.9,268.3,61.8,266.8,61.8Zm-8-13.1a4.07,4.07,0,0,0-1.1.1c-.6.2-11.3,9.1-11.4,9.5a5.53,5.53,0,0,0-.3,1.8c0,1.3,1.1,1.7,2.2,1.7,2.6,0,12.7-8.9,12.7-11.5C260.9,49.2,259.7,48.7,258.8,48.7Z"/>
  <path class="cls-1" d="M293.7,62.5c-1.3.6-2.8.6-4.2,1.1-3.9,1.3-7.4,3.7-11.7,3.7a1.72,1.72,0,0,1-1.6-1.6c0-1.1,6.5-9.5,7.6-10.9,0-.1.2-.6.2-.7a2.4,2.4,0,0,0-2.3-2.3c-3,0-8.4,8.4-12.1,8.4-.11,0-.21-.2-.3-.3l.4-.8c1.6-1.2,3.3-2.2,4.9-3.5,4.3-3.4,7.5-10,13.7-10a2.93,2.93,0,0,1,2.7,2.8c0,5.5-6.3,9.8-6.3,13.7,0,.5.6.4.9.4,4.7,0,8.2-1.7,12-4.1a11.22,11.22,0,0,1,3.4-1.8c0,.2.1.4.1.6C301.1,58.8,295.1,61.8,293.7,62.5Z"/>
  <path class="cls-1" d="M331.6,28.9c-2,3.2-10.2,12.4-14.3,15.6-.4,0-1.2-.1-1.2-.7a86.33,86.33,0,0,0,11.2-13.3c6.1-9.7,11-19.8,12.5-19.8a2.1,2.1,0,0,1,1.9,2.2C341.7,15.6,333.4,26.2,331.6,28.9Z"/>
  <path class="cls-1" d="M350.2,64c-1.1,0-2.2-.3-3.3-.3-3.51,0-.9-6.7-3.8-6.7-4.11,0-18.41,11.4-20.71,11.4a1.63,1.63,0,0,1-1.7-1.56V66.7c0-4.3,6-5.3,6-10.5,0-.6-.2-.9-.8-.9-4.7,0-5.8,1.3-9.6,3.6-.9.6-2,1-2.9,1.6l-.4-.2c0-.4,0-.7.4-.9a10.23,10.23,0,0,1,2.8-1.8c4.5-2.6,11.8-9.5,17-9.5,1.3,0,4.11.2,4.11,2s-3.5,4.4-3.5,5.7c0,.7.3,1.6,1.19,1.6,3.81,0,11-7.5,16.31-7.5,1.7,0,2.6.1,2.6,2.1,0,3.5-2.9,5.3-3.1,7.3l.4.7a14.13,14.13,0,0,0,2.9.3c4.8,0,7.1-1.4,11.2-3.3l.1.1C365.4,60.3,353.1,64,350.2,64Z"/>
  <path class="cls-1" d="M235,96.66c0-.25-.3-.4-2.7-.8-.2,0-.25-.15-.1-.4.4-.9.45-1,.65-1,1.95-.65,3.75-1.25,5.95-2h.2c.1,0,.15.1.1.4-.2,3.4-.45,10.1-.45,12.7s0,3.45.05,4,.2,1,.75,1c1.55-.1,1.9-.1,2-.1s.45.3.4.45l-.15,1.3c0,.3-.15.3-.4.3-1.45,0-2.85-.1-4.45-.1a39.56,39.56,0,0,0-4.35.3c-.25,0-.35,0-.4-.25a4.92,4.92,0,0,1-.1-1.15.23.23,0,0,1,.21-.25h0c1.8-.2,2.25-.35,2.5-1.75a43.73,43.73,0,0,0,.35-7.5Zm5-13.3a2.5,2.5,0,0,1-2.25,2.73h-.22A2.17,2.17,0,0,1,235.4,84v-.11a2.62,2.62,0,0,1,2.5-2.7,2.17,2.17,0,0,1,2.17,2.17Z"/>
  <path class="cls-1" d="M256.77,113.21a5.53,5.53,0,0,1-.3-1.8,59.45,59.45,0,0,0-.85-7.4c-.1-.35,0-.45.2-.5a6.77,6.77,0,0,1,1.1-.15c.2,0,.35.1.5.6a9,9,0,0,0,1.45,3.2,10.57,10.57,0,0,0,8.25,4.3c4.45,0,7.55-2.9,7.55-7a5.06,5.06,0,0,0-2.25-4.2c-1-.8-2.3-1.5-6.25-3-3.45-1.3-5.9-2.45-7.5-4.35a8.31,8.31,0,0,1-1.85-5,7.76,7.76,0,0,1,4.2-7.2,17,17,0,0,1,7.35-1.61,40.52,40.52,0,0,1,4.8.4,5.51,5.51,0,0,0,1.4.15c.35,0,.8-.4,1.25-1a4,4,0,0,1,1.2,0,34.39,34.39,0,0,0,.45,7.85c0,.3,0,.5-.2.6a2.83,2.83,0,0,1-1.15.5c-.15,0-.2,0-.25-.25-.55-1.75-1-3.45-2.4-4.65-1.05-1-3.55-1.85-6.1-1.85-3.8,0-6.25,2.45-6.25,5.75a5.5,5.5,0,0,0,1.35,3.65c1.25,1.25,2.65,2.1,6.4,3.45s6,2.5,7.5,3.9a7.47,7.47,0,0,1,2.65,6.1,8.52,8.52,0,0,1-4.4,7.7c-2.25,1.25-6.6,1.8-8.3,1.8a34.94,34.94,0,0,1-6.45-.75,1.28,1.28,0,0,0-.9.1,8.15,8.15,0,0,0-1,.65.94.94,0,0,1-.65.3C257.17,113.51,257,113.46,256.77,113.21Z"/>
  <path class="cls-1" d="M282.6,111.26c1.6-.6,2.15-1,2.35-2.3a66.24,66.24,0,0,0,.3-6.9c0-2-.05-3.65-.15-4.6,0-.5-.2-.65-2.45-1.2-.2-.25-.3-.15-.15-1,0-.15.15-.25.5-.4,2.1-1,4.3-2.2,4.55-2.4a1.27,1.27,0,0,1,.6-.15c.2,0,.45.15.45.35,0,.85.1,1.75.1,2.65,0,.2.05.45.3.4a37.28,37.28,0,0,1,4.35-2.25,7,7,0,0,1,2.8-.7,5,5,0,0,1,3.4,1.1c1.35,1,2,2.8,2.25,5,.1,1,.1,2.25.1,4.4,0,3.6.05,5.8.05,7,0,.4.05.5.2.5.45,0,1.85-.15,2.65-.2.15,0,.25.15.25.45a4.78,4.78,0,0,1-.25,1.25c-.1.25-.15.25-.4.25-4.45,0-5.95.2-7.85.2-.3,0-.55,0-.6-.2l-.25-1c1.45-.55,2-1,2.25-2.35a53.24,53.24,0,0,0,.25-6.8c0-2.8,0-4.2-1.2-5.45a4.36,4.36,0,0,0-3.35-1.25A10.36,10.36,0,0,0,289.5,97a1.44,1.44,0,0,0-.6,1.25c-.1,1.7-.1,8.85-.1,11.55,0,.65.15.75,2.75,1.15.25,0,.35.15.25.4l-.25,1h-4.3c-1.95,0-3.6.25-4.55.25q-.22,0-.15-.3Z"/>
  <path class="cls-1" d="M321.52,94.26a8.58,8.58,0,0,1,2,3.3c.5-.1,1.45-.3,1.6-.15s.15.25,0,.45c-.1.45-.45,1.35-.9,1.5-3.45.8-9.85,2-12,2.65-.25,0-.35.35-.35.9.15,4.9,2.75,7,6.1,7a8.87,8.87,0,0,0,5.95-2.45c.2-.2.8-.2.8,0-.1,1.2-.15,1.55-.45,1.85a17.93,17.93,0,0,1-6.2,3.3,6.4,6.4,0,0,1-1.85.25,8.79,8.79,0,0,1-6.4-2.8,9.7,9.7,0,0,1-2.2-6.3,12.08,12.08,0,0,1,5.2-9.65,8.67,8.67,0,0,1,4.45-1.55A6.64,6.64,0,0,1,321.52,94.26Zm-5.9.15a2.56,2.56,0,0,0-1.25.45c-1.5,1-2.3,3.55-2.25,5.65,2.35-.65,4.65-1,6.9-1.6.3,0,.55-.25.55-.8a4.47,4.47,0,0,0-4-3.7Z"/>
  <g>
    <path class="cls-1" d="M328.37,110.86c1.2-.4,1.4-.55,1.5-1.2a54.35,54.35,0,0,0,.15-6.25V99c0-1.2-.1-1.5-2-2a1.24,1.24,0,0,1-.6-1.15c2-1.2,4-2.2,5.5-3.25a1.37,1.37,0,0,1,.65-.2c.2,0,.45.35.35.8-.1,1.3-.2,2.2-.2,3.75a42.19,42.19,0,0,0,4.7-3.4,2.46,2.46,0,0,1,4.2,1.7c0,.75-1.2,2.2-1.65,2.6a1.91,1.91,0,0,1-.85.4.69.69,0,0,1-.65-.35,2.54,2.54,0,0,0-1.9-1.15,5.84,5.84,0,0,0-3.35,1.7c-.35.3-.45,1-.45,3.3V108a5.79,5.79,0,0,0,.2,2.15c.15.25.35.4.85.35l2.75-.1a.48.48,0,0,1,.4.45l-.3,1.55H331c-1.3,0-2.55.1-2.9.1-.2,0-.3-.15-.2-.45Z"/>
    <path class="cls-1" d="M351,89.61c0,.65-.25,3.25-.25,3.75,2.4,0,5.35-.25,7.1-.25.5,0,.55.1.55.55a7,7,0,0,1-.3,1.7c-.1.4-.35.45-.75.45-1.45,0-3.8,0-6.45.15-.15,0-.25.1-.3.7-.15,2.25-.1,7.45-.1,10.2,0,2.25,1.45,3.45,3.7,3.45a5.4,5.4,0,0,0,3.15-1.15c.25-.15.35-.15.4,0a3.37,3.37,0,0,1,.15,1,.61.61,0,0,1-.35.55c-1.9,1.1-3.85,2.2-6.25,2.2a5.33,5.33,0,0,1-3.8-1.6c-.65-.8-.8-1.75-.7-3.65.1-2.7.1-9.6.2-11a.67.67,0,0,0-.45-.7h-2.05c-.15,0-.4-.4-.25-.5,1.85-1.65,5-4.65,6.05-5.8a1,1,0,0,1,.55-.3C351,89.33,351,89.41,351,89.61Z"/>
  </g>
  <path class="cls-1" d="M363.17,96.66c0-.25-.3-.4-2.7-.8-.2,0-.25-.15-.1-.4.4-.9.45-1,.65-1,2-.65,3.75-1.25,6-2h.2c.1,0,.15.1.1.4-.2,3.4-.45,10.1-.45,12.7v4c0,.55.2,1,.75,1,1.55-.1,1.9-.1,2.05-.1s.45.3.4.45l-.15,1.3c-.05.3-.15.3-.4.3-1.45,0-2.85-.1-4.45-.1a39.56,39.56,0,0,0-4.35.3c-.25,0-.35,0-.4-.25a4.92,4.92,0,0,1-.1-1.15.23.23,0,0,1,.21-.25h0c1.8-.2,2.25-.35,2.5-1.75a43.73,43.73,0,0,0,.35-7.5Zm5.05-13.3a2.5,2.5,0,0,1-2.29,2.69h-.21a2.17,2.17,0,0,1-2.2-2.14v-.11a2.62,2.62,0,0,1,2.5-2.7,2.17,2.17,0,0,1,2.2,2.14Z"/>
  <path class="cls-1" d="M373,111.26c1.6-.6,2.15-1,2.35-2.3a66.24,66.24,0,0,0,.3-6.9c0-2-.05-3.65-.15-4.6,0-.5-.2-.65-2.45-1.2-.2-.25-.3-.15-.15-1,0-.15.15-.25.5-.4,2.1-1,4.3-2.2,4.55-2.4a1.27,1.27,0,0,1,.6-.15c.2,0,.45.15.45.35.05.85.1,1.75.1,2.65,0,.2.05.45.3.4a37.28,37.28,0,0,1,4.35-2.25,7,7,0,0,1,2.8-.7,5,5,0,0,1,3.4,1.1c1.35,1,2,2.8,2.25,5,.1,1,.1,2.25.1,4.4v7c0,.4.05.5.2.5.45,0,1.85-.15,2.65-.2.15,0,.25.15.25.45a4.78,4.78,0,0,1-.25,1.25c-.1.25-.15.25-.4.25-4.45,0-6,.2-7.85.2-.3,0-.55,0-.6-.2l-.25-1c1.45-.55,2-1,2.25-2.35a53.24,53.24,0,0,0,.25-6.8c0-2.8,0-4.2-1.2-5.45A4.36,4.36,0,0,0,384,95.66,10.36,10.36,0,0,0,379.87,97a1.44,1.44,0,0,0-.6,1.25c-.1,1.7-.1,8.85-.1,11.55,0,.65.15.75,2.75,1.15.25,0,.35.15.25.4l-.25,1h-4.3c-1.95,0-3.6.25-4.55.25q-.22,0-.15-.3Z"/>
  <path class="cls-1" d="M411.22,93.41a1.88,1.88,0,0,0,.9.2c.8,0,3.75-.6,4.75-.6a1.35,1.35,0,0,1,1,.65c.05.2.2,1.4.2,1.6s-.25.6-.85.6H413a7.55,7.55,0,0,1,1.35,4c0,3.5-2.55,6.6-6.4,8.15a38.65,38.65,0,0,0-4.1,1.85.87.87,0,0,0-.45.7c0,.9,1.2,1.3,2.55,1.3.6,0,3.75-.1,4.2-.1a9.22,9.22,0,0,1,5.7,1.55,4.32,4.32,0,0,1,1.4,3.5c0,1.6-.45,2.45-1.8,4a14.21,14.21,0,0,1-6.15,4.5,18.47,18.47,0,0,1-4.9.75c-5.4,0-7.55-2.65-7.55-4.65a4.52,4.52,0,0,1,1.9-3.9c1.2-.9,2.2-1.55,3.75-2.55-2.2-1-3.4-1.65-3.4-3.15a1.41,1.41,0,0,1,.35-1,41.28,41.28,0,0,1,4.75-2.6,8.57,8.57,0,0,1-4-2,6.82,6.82,0,0,1-2.25-5c0-3,1.65-5.1,3.9-6.7a10.24,10.24,0,0,1,5.6-2A8.68,8.68,0,0,1,411.22,93.41Zm1.5,28.1a4.18,4.18,0,0,0,1.75-3,2.46,2.46,0,0,0-1.05-2.25,7.6,7.6,0,0,0-4.3-1,24.68,24.68,0,0,0-5,.45,4.29,4.29,0,0,0-2,1.2,4.5,4.5,0,0,0-1.8,3.15c0,.9,1.1,3.45,6.1,3.45C409.37,123.41,411.42,122.71,412.72,121.51Zm-3-24.7a5.12,5.12,0,0,0-4.4-2.4,3.66,3.66,0,0,0-2.55,1.1,4.33,4.33,0,0,0-1.3,3.4,7.52,7.52,0,0,0,2.25,5.45,5.59,5.59,0,0,0,3.7,1.7c1.8,0,3.55-1.1,3.55-4.45A9.31,9.31,0,0,0,409.72,96.81Z"/>
  <path class="cls-1" d="M422.77,96.1c1.75-1.6,5.3-3.45,7.65-3.45a12.9,12.9,0,0,1,3.55.5.49.49,0,0,0,.5-.4c0-.7.1-1.7.1-3.5a63.37,63.37,0,0,0-.15-6.75c-.05-.7-.15-.9-2.4-1.25a.47.47,0,0,1-.4-.4l-.1-.35c0-.2,0-.3.1-.4a39.74,39.74,0,0,0,5.85-2.8,1.46,1.46,0,0,1,.65-.1c.2,0,.35.4.35.8-.05,4.5-.3,14.75-.3,20.55v6a42.65,42.65,0,0,0,.25,5.3c.15.65.4.75.7.75a7.74,7.74,0,0,0,2.25-.7c.25,0,.5-.1.55.1a5.51,5.51,0,0,1,.25,1.45c0,.4-.3.45-.65.55a55.92,55.92,0,0,1-6,1.35,1.23,1.23,0,0,1-.95-1c-.05-.75-.1-1.9-.1-2.55-3.75,1.9-6.75,3-7.4,3a8.09,8.09,0,0,1-5.15-2.25,9.55,9.55,0,0,1-2.85-6.5A10.58,10.58,0,0,1,422.77,96.1Zm1.9.4a6.67,6.67,0,0,0-1.8,4.75c0,1.25.2,4.75,2.75,7a5.57,5.57,0,0,0,4.1,1.5,10.17,10.17,0,0,0,4-1.1c.5-.3.6-.4.65-.75a70.82,70.82,0,0,0,0-10.3c-.05-.5-.1-.75-.8-1.25a9.63,9.63,0,0,0-5.3-1.45,5.48,5.48,0,0,0-3.6,1.56Z"/>
  <path class="cls-1" d="M446.12,98.61a2.74,2.74,0,0,1-.9.15.88.88,0,0,1-.6-.65,2.27,2.27,0,0,1,.45-1.15c.9-1.4,4.55-3.55,5.85-4a7.84,7.84,0,0,1,2.75-.6,5.08,5.08,0,0,1,4.15,1.8,3.34,3.34,0,0,1,.95,2.45c0,3.5-.1,7-.1,10.3-.05,2.7.45,3.65,1.2,3.65a8.09,8.09,0,0,0,2.45-.7c.15-.1.5.3.5.5l-.1.85a.57.57,0,0,1-.3.55,18.26,18.26,0,0,1-5.55,1.25c-.9,0-1.65-.45-2.1-2.6a47.45,47.45,0,0,1-6.3,2.5,4.68,4.68,0,0,1-2.85-1,5.28,5.28,0,0,1-1.45-3.9c0-1,.8-1.9,2.15-2.6a29.59,29.59,0,0,1,8.6-2.65,27.1,27.1,0,0,0,.15-3.6c0-2.1-.4-3.25-.85-3.65a4.81,4.81,0,0,0-2.8-.8,4.72,4.72,0,0,0-2,.35c-.2.15-.35.5-.35,2.1,0,.35,0,.55-.3.65Zm7.65,10.75c.6-.45,1-.75,1.1-1.35s.15-2.5.15-3.2c0-.35-.1-.55-.25-.55-3,.45-4.8,1-5.9,1.9-.3.2-.5.55-.5,1.45,0,1.7.5,2.75,2.25,2.75a12.43,12.43,0,0,0,3.15-1Z"/>
  <path class="cls-1" d="M464,112.1a1.88,1.88,0,0,1,.2-.9,8.67,8.67,0,0,1,1.2-.45c1-.35,1.2-.65,1.25-1.3.3-6.1.45-14.8.45-18.85,0-3.5,0-6.1-.1-7.6s-.5-1.55-2.75-1.75c-.2,0-.2-.1.05-1.1,0-.1.15-.2.5-.3a61,61,0,0,0,6.1-2.5.46.46,0,0,1,.2,0c.15,0,.15.15.15.4-.45,6.4-.6,16.2-.6,25.5,0,6.4.15,7.4,1.4,7.4.7,0,1.9-.1,2.1-.1s.3,0,.3.3a8.68,8.68,0,0,1-.25,1.35c-.05.2-.2.2-.4.2-1.7,0-8,.15-9.65.35-.15,0-.2,0-.2-.2Z"/>
</svg>
