<?xml version="1.0" encoding="utf-8"?>
<!-- Generator: Adobe Illustrator 23.0.3, SVG Export Plug-In . SVG Version: 6.00 Build 0)  -->
<svg version="1.1" id="Layer_1" xmlns="http://www.w3.org/2000/svg" xmlns:xlink="http://www.w3.org/1999/xlink" x="0px" y="0px"
	 viewBox="0 0 474.5 132.6" style="enable-background:new 0 0 474.5 132.6;" xml:space="preserve">
<style type="text/css">
	.st0{fill:#F9CF36;}
</style>
<title>logo2</title>
<path class="st0" d="M66.4,53.6c-6.1,0-14.4-4.6-16.6-10.5C44.4,48,38.4,52.6,34,58.4c-1.7,2.2-2.9,4.7-4.7,6.8
	c-1.6,1.9-22.6,19.4-23,19.4c-1-0.1-1.9-0.9-1.8-2c0,0,0,0,0,0c0-1.1,0.1-2.1,0.5-3.1c1.5-3.8,7-5.6,9.9-8.3c2-1.9,3.8-3.9,5.7-5.8
	c3.4-3.3,7-6.4,10.4-9.6c2.8-2.7,5.4-5.5,7.9-8.4c5-5.8,11-10.5,16.8-15.4c2.9-2.5,5.6-5.3,8.9-7.3c2.4-1.4,5.8-3,7.5-5.2
	c2.2-2.8,1.9-6.4,6.5-6.4c1.1,0.1,2,1.1,2,2.2c0,4.2-16,12.8-19.6,15.7c-3.1,2.5-5.4,5.7-7.9,8.8c0,5.1,8.8,9.3,13.2,9.3
	c10.3,0,23.1-18.6,23.1-28.1c0-9.7-17.1-15.4-25-15.4c-5.6,0-11.1-1.1-16.7-1.1S37,6.8,31.6,7.6c-11.4,1.7-17.4,2.3-23.8,13
	C5.8,24,4,27.8,4,31.8c0,7.6,6.8,10.8,13.5,10.8c4.9,0,8.8-4.9,8.8-9.6c0-0.9-0.8-1.7-1.7-1.7c0,0-0.1,0-0.1,0c-2.8,0-3.2,3.5-5,3.5
	c-1.2-0.1-2-1-2-2.2c0-3,4.9-6.7,7.7-6.7c3.3,0,5.2,2.8,5.2,5.9c0,7.1-5.3,15.2-13,15.2C8.2,47,0,41.9,0,31.9
	c0-4.9,2.1-9.5,4.5-13.7C11.5,6,18.4,4.9,31.4,3.1C36.8,2.3,42.1,0,47.6,0s11.2,0.9,16.8,0.9c10.7,0,28.9,7.3,28.9,20
	C93.3,32.4,78.9,53.6,66.4,53.6z"/>
<path class="st0" d="M108,62.5c-1.3,0.6-2.8,0.6-4.2,1.1c-3.9,1.3-7.4,3.7-11.7,3.7c-0.9-0.1-1.5-0.7-1.6-1.6
	c0-1.1,6.5-9.5,7.6-10.9c0-0.1,0.2-0.6,0.2-0.7c-0.1-1.2-1.1-2.2-2.3-2.3c-3,0-8.4,8.4-12.1,8.4c-0.1,0-0.2-0.2-0.3-0.3l0.4-0.8
	c1.6-1.2,3.3-2.2,4.9-3.5c4.3-3.4,7.5-10,13.7-10c1.5,0.1,2.6,1.3,2.7,2.8c0,5.5-6.3,9.8-6.3,13.7c0,0.5,0.6,0.4,0.9,0.4
	c4.7,0,8.2-1.7,12-4.1c1-0.8,2.2-1.4,3.4-1.8c0,0.2,0.1,0.4,0.1,0.6C115.4,58.8,109.4,61.8,108,62.5z"/>
<path class="st0" d="M154.2,60.4c-4.8,2.9-9.4,4.9-15.1,4.9c-2.7-0.1-5.2-1.6-6.4-4.1c-0.2-0.4-0.5-1.2-0.7-1.5
	c-0.3-0.2-0.8-0.4-1.2-0.3c-5,0-7,6.1-13.3,6.1c-3,0-6.6-0.4-6.6-4.2c0-2.9,14.1-15.1,17.2-15.7c0.5-0.1,1-0.1,1.5-0.1
	c2.7,0,3.1,1.6,4.4,1.6c2,0,3.4-2,5.4-2c2.2-2.3,5.3-3.5,8.4-3.3c2.6,0,6.5,0.3,6.5,3.8s-8.8,9.5-11.8,10.8
	c-2.2,0.8-4.3,1.8-6.3,2.9c-0.1,0.3-0.2,0.7-0.2,1c0,1.5,3.1,2.3,4.3,2.3c6.1,0,15.3-5,16.3-5c0.2,0,0.3,0.2,0.3,0.4
	C156.9,58.9,154.9,60,154.2,60.4z M130.1,48.7c-0.4,0-0.7,0-1.1,0.1c-0.6,0.2-11.3,9.1-11.4,9.5c-0.2,0.6-0.3,1.2-0.3,1.8
	c0,1.3,1.1,1.7,2.2,1.7c2.6,0,12.7-8.9,12.7-11.5C132.2,49.2,131,48.7,130.1,48.7z M149.2,47.4c-0.1-1.2-1.1-2-2.3-1.9
	c-1.5,0-3,0.4-4.3,1c-1.8,1.1-5.7,5.7-5.7,7.9c0,0.2,0.1,0.3,0.1,0.5l0.7,0.3c1.4,0,8.2-3.7,9.3-4.8c0.8-0.9,1.5-1.8,2.2-2.7V47.4z"
	/>
<path class="st0" d="M169.7,65.6c-1.6,0.6-3.3,0.9-4.9,1.4c-3.3,5.8-5.6,7.6-12.4,7.6c-0.8,0-1.1-0.3-1.1-1.1
	c0-3.6,9.3-7.8,12.3-8.9c1-1.9,1.6-4,1.6-6.1c0-1.7-0.3-3.4-0.3-5.1c-3.2,1.2-9.6,7.1-12.3,7.1c-0.2,0-0.4,0.1-0.4-0.2
	c0.7-1.3,1.2-1.4,2.4-2.1c4.9-3.1,8.3-8.5,12.9-11c0.9-1.9,2.4-5.9,4.9-5.9c0.9,0,2.7,0.5,2.7,1.6c0,3-4,5.4-6.3,6.6
	c-0.9,1.7-1.9,3.5-1.9,5.5c0,1.3,0.4,2.5,0.4,3.8c0,1.7-0.4,3.3-0.9,4.9c2.7-0.8,5.5-1.2,8-2.6c2.1-1.1,3.9-2.8,6.1-3.7l0.2,0.3
	C179.6,59.2,171.5,64.9,169.7,65.6z"/>
<path class="st0" d="M334.5,22.7c-13.4,2-26.9,3.3-40.4,3.8c-15.6,0.6-31,4-46.6,4c-8,0-16-1.3-24-1.9c-8.7,5-14.1,13.9-20.8,21.1
	c-3.9,4.1-8,7.9-12.3,11.5c-2.9,2.5-12.5,13.2-15.6,13.2c-1.1,0-2-0.5-2-1.7c0-1.9,1.1-2.9,2.4-4.1c3.5-3.2,6.8-6.5,10.8-9.1
	c3.5-2.3,5.7-5.9,8.6-8.8c1.8-1.8,3.9-3.4,5.6-5.3c4.7-5.2,8.3-11.3,12.9-16.5c-8.3-2.1-16.7-4-25.3-4c-5.3,0-10.5-1.2-15.8-1.2
	c-4.3,0-28.2,0.2-28.2,5.6c0,2.2,3.8,1.9,4.5,4.2c-0.3,0.4-0.8,0.7-1.3,0.7c-2.2,0-10.8-3.3-10.8-5.8c0-3,10.6-4.8,13-5.3
	c7-1.4,14.1-1.3,21.2-1.3c8.6,0,17,1.2,25.6,1.2c7,0,13.7,2.3,20.6,3.1c3.4-2.9,7.2-5.1,10.8-7.8c5.5-4.1,11-11.2,18.4-11.2
	c1.1,0,3.7,0.5,3.7,2c0,4.7-19.3,14.3-23.5,17.1c6.9,0.2,13.7,1.7,20.6,1.7c9,0,17.9-1.8,26.9-2.6c7-0.6,13.9-0.4,20.9-0.7
	c6.7-0.3,13.4-1.2,20-2.1c6-0.8,12.1-1.4,18.1-2.5c3.6-0.7,7.1-2,10.8-2c1.2,0,3,0.1,3,1.7S336.2,22.4,334.5,22.7z"/>
<path class="st0" d="M242.4,58.9c-3.7,2.3-8.2,2.6-11.6,5.3s-7,5.3-10.4,8.1c-10.9,9.1-21.2,18.9-30.9,29.3
	c-3.5,3.7-6.8,7.4-10.6,10.8c-3,2.7-6.5,5.1-9,8.3c-1,1.5-2.1,2.9-3.3,4.2c-1,1-7.7,6.3-8.8,6.7c-2.1,0.7-4.3,1-6.5,1
	c-0.8,0-2.8-1.3-2.8-2.2c0-1.5,4.7-7.8,5.8-9.2c16-20.2,40.2-39.3,62.8-51.1c1.8-0.9,4-2.6,4-4.9c-0.4-0.2-0.9-0.3-1.4-0.3
	c-3.8,0-7.2,1.8-11,1.8c-0.8,0.1-1.6-0.1-2.3-0.4c-0.1-0.4-0.2-0.9-0.2-1.3c0-1.7,3.6-6.5,4.8-7.9c-1.8,0.4-7.5,3.4-8.1,3.4
	c-0.1,0-0.2-0.1-0.3-0.1c0.8-1.3,2-2.3,3.3-3c3.1-1.7,6.6-2.3,9.8-3.5c4.7-1.7,11.1-4.2,16.1-4.2c0.5,0,2.3,0.2,2.3,0.9
	c0,1.5-4.2,5-5.6,5.5c-2.4,0.9-10.1,0.7-10.1,4.4c0.1,0.4,0.5,0.6,0.8,0.8c2.9,0,6.5-1.8,9.2-1.2c1.9-0.5,3.9-0.6,5.8-0.5
	c2.1,0.1,4.1-0.2,6.1-0.9c0.7-0.3,2.8-1.8,3.4-1.8s0.5-0.1,0.5,0.3S242.8,58.7,242.4,58.9z M207.6,77.1
	c-10.2,3.1-32.9,23.5-40.8,31.8c-2.7,2.8-4.9,6.1-7.5,9c-1.3,1.5-7.3,8.1-7.3,9.6c0,0.8,1.6,1.3,2.2,1.3c2.5,0,15.3-10.8,17.6-13.1
	c5.9-6.1,11.6-12.3,17.7-18.2c3.7-3.5,7.6-6.8,11.2-10.5c0.9-0.9,7.7-8.5,7.7-8.9C208.4,77.6,208,77.2,207.6,77.1z"/>
<path class="st0" d="M266.8,61.8c-1.6,0-5.5-0.6-6.7-1.6c-0.4-0.4-0.7-0.8-1.3-0.8c-3.8,0-6.5,6.1-12.6,6.1c-3,0-6.6-0.4-6.6-4.2
	c0-2.9,14.1-15.1,17.2-15.7c0.5-0.1,1-0.1,1.5-0.1c2.7,0,3.1,1.6,4.4,1.6c2,0,3.5-2,5.2-2c0.8,0,2.2,0,2.2,1.1c0,2.1-5.8,6-5.8,9.1
	c-0.1,2.1,1.5,3.8,3.6,3.9c0.1,0,0.2,0,0.3,0c2.2,0,3.2-1.6,5.1-2.2l0.5,0.4C273.5,58.9,268.3,61.8,266.8,61.8z M258.8,48.7
	c-0.4,0-0.7,0-1.1,0.1c-0.6,0.2-11.3,9.1-11.4,9.5c-0.2,0.6-0.3,1.2-0.3,1.8c0,1.3,1.1,1.7,2.2,1.7c2.6,0,12.7-8.9,12.7-11.5
	C260.9,49.2,259.7,48.7,258.8,48.7z"/>
<path class="st0" d="M293.7,62.5c-1.3,0.6-2.8,0.6-4.2,1.1c-3.9,1.3-7.4,3.7-11.7,3.7c-0.9-0.1-1.5-0.7-1.6-1.6
	c0-1.1,6.5-9.5,7.6-10.9c0-0.1,0.2-0.6,0.2-0.7c-0.1-1.2-1.1-2.2-2.3-2.3c-3,0-8.4,8.4-12.1,8.4c-0.1,0-0.2-0.2-0.3-0.3l0.4-0.8
	c1.6-1.2,3.3-2.2,4.9-3.5c4.3-3.4,7.5-10,13.7-10c1.5,0.1,2.6,1.3,2.7,2.8c0,5.5-6.3,9.8-6.3,13.7c0,0.5,0.6,0.4,0.9,0.4
	c4.7,0,8.2-1.7,12-4.1c1-0.8,2.2-1.4,3.4-1.8c0,0.2,0.1,0.4,0.1,0.6C301.1,58.8,295.1,61.8,293.7,62.5z"/>
<path class="st0" d="M331.6,28.9c-2,3.2-10.2,12.4-14.3,15.6c-0.4,0-1.2-0.1-1.2-0.7c4.2-4,7.9-8.5,11.2-13.3
	c6.1-9.7,11-19.8,12.5-19.8c1.1,0.1,2,1.1,1.9,2.2C341.7,15.6,333.4,26.2,331.6,28.9z"/>
<path class="st0" d="M350.2,64c-1.1,0-2.2-0.3-3.3-0.3c-3.5,0-0.9-6.7-3.8-6.7c-4.1,0-18.4,11.4-20.7,11.4c-0.9,0-1.7-0.7-1.7-1.6
	c0,0,0-0.1,0-0.1c0-4.3,6-5.3,6-10.5c0-0.6-0.2-0.9-0.8-0.9c-4.7,0-5.8,1.3-9.6,3.6c-0.9,0.6-2,1-2.9,1.6l-0.4-0.2
	c0-0.4,0-0.7,0.4-0.9c0.8-0.7,1.8-1.4,2.8-1.8c4.5-2.6,11.8-9.5,17-9.5c1.3,0,4.1,0.2,4.1,2s-3.5,4.4-3.5,5.7c0,0.7,0.3,1.6,1.2,1.6
	c3.8,0,11-7.5,16.3-7.5c1.7,0,2.6,0.1,2.6,2.1c0,3.5-2.9,5.3-3.1,7.3l0.4,0.7c1,0.2,1.9,0.3,2.9,0.3c4.8,0,7.1-1.4,11.2-3.3l0.1,0.1
	C365.4,60.3,353.1,64,350.2,64z"/>
<g>
	<path class="st0" d="M235,96.7c0-0.3-0.3-0.4-2.7-0.8c-0.2-0.1-0.3-0.2-0.1-0.4c0.4-0.9,0.4-1,0.6-1c1.9-0.7,3.8-1.3,5.9-2h0.2
		c0.1,0,0.1,0.1,0.1,0.4c-0.2,3.4-0.4,10.1-0.4,12.7s0,3.4,0.1,4s0.2,1,0.8,1c1.6-0.1,1.9-0.1,2-0.1s0.4,0.3,0.4,0.4l-0.1,1.3
		c0,0.3-0.1,0.3-0.4,0.3c-1.4,0-2.9-0.1-4.4-0.1c-1.5,0-2.9,0.1-4.4,0.3c-0.3,0-0.4,0-0.4-0.3c-0.1-0.4-0.1-0.8-0.1-1.2
		c0-0.1,0.1-0.2,0.2-0.3c0,0,0,0,0,0c1.8-0.2,2.3-0.3,2.5-1.8c0.3-2.5,0.4-5,0.4-7.5L235,96.7z M240.1,83.4c0.1,1.4-0.9,2.6-2.2,2.7
		c-0.1,0-0.1,0-0.2,0c-1.2,0-2.2-0.9-2.2-2.1c0,0,0-0.1,0-0.1c0-1.4,1.1-2.6,2.5-2.7C239.1,81.1,240.1,82.1,240.1,83.4
		C240.1,83.3,240.1,83.3,240.1,83.4z"/>
</g>
<g>
	<path class="st0" d="M256.8,113.2c-0.2-0.6-0.3-1.2-0.3-1.8c-0.1-2.5-0.4-5-0.9-7.4c-0.1-0.3,0-0.4,0.2-0.5
		c0.4-0.1,0.7-0.1,1.1-0.2c0.2,0,0.4,0.1,0.5,0.6c0.3,1.2,0.8,2.2,1.5,3.2c1.9,2.6,5,4.2,8.3,4.3c4.5,0,7.5-2.9,7.5-7
		c0-1.7-0.8-3.3-2.3-4.2c-1-0.8-2.3-1.5-6.3-3c-3.5-1.3-5.9-2.4-7.5-4.3c-1.1-1.4-1.8-3.2-1.9-5c-0.1-3,1.5-5.8,4.2-7.2
		c2.3-1.1,4.8-1.6,7.3-1.6c1.6,0,3.2,0.2,4.8,0.4c0.5,0.1,0.9,0.2,1.4,0.2c0.4,0,0.8-0.4,1.3-1c0.4-0.1,0.8-0.1,1.2,0
		c-0.2,2.6,0,5.3,0.5,7.8c0,0.3,0,0.5-0.2,0.6c-0.3,0.3-0.7,0.4-1.1,0.5c-0.1,0-0.2,0-0.3-0.3c-0.5-1.8-1-3.4-2.4-4.7
		c-1-1-3.5-1.8-6.1-1.8c-3.8,0-6.3,2.4-6.3,5.8c0,1.3,0.5,2.6,1.4,3.7c1.3,1.3,2.6,2.1,6.4,3.4s6,2.5,7.5,3.9
		c1.8,1.5,2.8,3.8,2.6,6.1c0.1,3.2-1.6,6.2-4.4,7.7c-2.3,1.3-6.6,1.8-8.3,1.8c-2.2,0-4.3-0.3-6.5-0.8c-0.3-0.1-0.6,0-0.9,0.1
		c-0.3,0.2-0.7,0.4-1,0.7c-0.2,0.2-0.4,0.3-0.6,0.3C257.2,113.5,257,113.5,256.8,113.2z"/>
</g>
<g>
	<path class="st0" d="M282.6,111.3c1.6-0.6,2.1-1,2.4-2.3c0.2-2.3,0.3-4.6,0.3-6.9c0-1.9,0-3.7-0.1-4.6c0-0.5-0.2-0.7-2.5-1.2
		c-0.2-0.3-0.3-0.2-0.1-1c0-0.2,0.1-0.3,0.5-0.4c2.1-1,4.3-2.2,4.5-2.4c0.2-0.1,0.4-0.1,0.6-0.2c0.2,0,0.5,0.2,0.5,0.3
		c0,0.8,0.1,1.8,0.1,2.7c0,0.2,0,0.4,0.3,0.4c1.4-0.8,2.9-1.6,4.4-2.3c0.9-0.4,1.8-0.7,2.8-0.7c1.2-0.1,2.4,0.3,3.4,1.1
		c1.4,1,2,2.8,2.3,5c0.1,1,0.1,2.3,0.1,4.4c0,3.6,0,5.8,0,7c0,0.4,0,0.5,0.2,0.5c0.5,0,1.9-0.2,2.6-0.2c0.1,0,0.3,0.2,0.3,0.4
		c0,0.4-0.1,0.8-0.3,1.3c-0.1,0.3-0.1,0.3-0.4,0.3c-4.5,0-6,0.2-7.9,0.2c-0.3,0-0.5,0-0.6-0.2l-0.3-1c1.5-0.6,2-1,2.3-2.3
		c0.2-2.3,0.3-4.5,0.3-6.8c0-2.8,0-4.2-1.2-5.4c-0.9-0.9-2.1-1.3-3.4-1.3c-1.5,0.2-2.9,0.6-4.1,1.3c-0.4,0.3-0.6,0.8-0.6,1.3
		c-0.1,1.7-0.1,8.8-0.1,11.6c0,0.7,0.1,0.8,2.8,1.2c0.3,0,0.4,0.2,0.3,0.4l-0.3,1.1h-4.3c-2,0-3.6,0.3-4.5,0.3
		c-0.1,0-0.2-0.1-0.1-0.3L282.6,111.3z"/>
</g>
<g>
	<path class="st0" d="M321.5,94.3c0.9,0.9,1.6,2.1,2,3.3c0.5-0.1,1.5-0.3,1.6-0.2s0.1,0.3,0,0.4c-0.1,0.4-0.5,1.3-0.9,1.5
		c-3.5,0.8-9.9,2-12,2.7c-0.3,0-0.4,0.3-0.4,0.9c0.1,4.9,2.8,7,6.1,7c2.2,0,4.3-0.9,6-2.4c0.2-0.2,0.8-0.2,0.8,0
		c-0.1,1.2-0.1,1.6-0.5,1.8c-1.8,1.5-3.9,2.6-6.2,3.3c-0.6,0.2-1.2,0.3-1.9,0.3c-2.4,0-4.7-1-6.4-2.8c-1.5-1.8-2.2-4-2.2-6.3
		c0.1-3.9,2-7.5,5.2-9.7c1.3-0.9,2.9-1.5,4.5-1.6C318.8,92.6,320.3,93.2,321.5,94.3z M315.6,94.4c-0.4,0-0.9,0.2-1.3,0.4
		c-1.5,1-2.3,3.6-2.3,5.7c2.4-0.7,4.6-1,6.9-1.6c0.3,0,0.5-0.3,0.5-0.8C319.2,96.1,317.6,94.6,315.6,94.4L315.6,94.4z"/>
</g>
<g>
	<path class="st0" d="M328.4,110.9c1.2-0.4,1.4-0.6,1.5-1.2c0.2-2.1,0.2-4.2,0.1-6.3V99c0-1.2-0.1-1.5-2-2c-0.4-0.2-0.6-0.7-0.6-1.2
		c2-1.2,4-2.2,5.5-3.3c0.2-0.1,0.4-0.2,0.6-0.2c0.2,0,0.5,0.3,0.4,0.8c-0.1,1.3-0.2,2.2-0.2,3.8c1.6-1,3.2-2.2,4.7-3.4
		c0.4-0.4,0.9-0.6,1.5-0.7c1.4,0,2.5,1,2.8,2.4c0,0.8-1.2,2.2-1.6,2.6c-0.2,0.2-0.5,0.3-0.9,0.4c-0.3,0-0.5-0.1-0.6-0.3
		c-0.4-0.7-1.1-1.1-1.9-1.2c-1.3,0.2-2.5,0.8-3.4,1.7c-0.4,0.3-0.5,1-0.5,3.3v6.3c-0.1,0.7,0,1.5,0.2,2.2c0.1,0.3,0.4,0.4,0.9,0.3
		l2.8-0.1c0.2,0,0.4,0.2,0.4,0.4l-0.3,1.6H331c-1.3,0-2.5,0.1-2.9,0.1c-0.2,0-0.3-0.2-0.2-0.4L328.4,110.9z"/>
	<path class="st0" d="M351,89.6c0,0.7-0.3,3.3-0.3,3.8c2.4,0,5.4-0.3,7.1-0.3c0.5,0,0.5,0.1,0.5,0.6c0,0.6-0.1,1.1-0.3,1.7
		c-0.1,0.4-0.4,0.4-0.8,0.4c-1.5,0.1-3.8,0.1-6.5,0.2c-0.1,0-0.3,0.1-0.3,0.7c-0.1,2.3-0.1,7.4-0.1,10.2c0,2.3,1.5,3.4,3.7,3.4
		c1.1,0,2.2-0.4,3.1-1.2c0.3-0.2,0.4-0.2,0.4,0c0.1,0.3,0.2,0.7,0.1,1c0,0.2-0.1,0.4-0.4,0.6c-1.9,1.1-3.9,2.2-6.3,2.2
		c-1.4,0-2.8-0.6-3.8-1.6c-0.6-0.8-0.8-1.8-0.7-3.7c0.1-2.7,0.1-9.6,0.2-11c0-0.3-0.2-0.6-0.5-0.7c-0.7,0-1.7,0-2,0
		c-0.1,0-0.4-0.4-0.3-0.5c1.9-1.7,5-4.7,6-5.8c0.1-0.2,0.3-0.3,0.5-0.3C351,89.3,351,89.4,351,89.6z"/>
</g>
<g>
	<path class="st0" d="M363.2,96.7c0-0.3-0.3-0.4-2.7-0.8c-0.2-0.1-0.3-0.2-0.1-0.4c0.4-0.9,0.5-1,0.6-1c2-0.7,3.8-1.3,6-2h0.2
		c0.1,0,0.1,0.1,0.1,0.4c-0.2,3.4-0.5,10.1-0.5,12.7s0,3.4,0,4s0.2,1,0.8,1c1.5-0.1,1.9-0.1,2-0.1s0.5,0.3,0.4,0.4l-0.1,1.3
		c0,0.3-0.1,0.3-0.4,0.3c-1.5,0-2.9-0.1-4.5-0.1c-1.5,0-2.9,0.1-4.4,0.3c-0.3,0-0.4,0-0.4-0.3c-0.1-0.4-0.1-0.8-0.1-1.2
		c0-0.1,0.1-0.2,0.2-0.3c0,0,0,0,0,0c1.8-0.2,2.3-0.3,2.5-1.8c0.3-2.5,0.4-5,0.4-7.5L363.2,96.7z M368.2,83.4
		c0.1,1.4-0.9,2.6-2.3,2.7c-0.1,0-0.1,0-0.2,0c-1.2,0-2.2-0.9-2.2-2.1c0,0,0-0.1,0-0.1c0-1.4,1.1-2.6,2.5-2.7c1.2,0,2.2,0.9,2.2,2.1
		C368.2,83.3,368.2,83.3,368.2,83.4z"/>
</g>
<g>
	<path class="st0" d="M373,111.3c1.6-0.6,2.1-1,2.4-2.3c0.2-2.3,0.3-4.6,0.3-6.9c0-1.9,0-3.7-0.1-4.6c0-0.5-0.2-0.7-2.5-1.2
		c-0.2-0.3-0.3-0.2-0.1-1c0-0.2,0.1-0.3,0.5-0.4c2.1-1,4.3-2.2,4.5-2.4c0.2-0.1,0.4-0.1,0.6-0.2c0.2,0,0.5,0.2,0.5,0.3
		c0,0.8,0.1,1.8,0.1,2.7c0,0.2,0,0.4,0.3,0.4c1.4-0.8,2.9-1.6,4.4-2.3c0.9-0.4,1.8-0.7,2.8-0.7c1.2-0.1,2.4,0.3,3.4,1.1
		c1.4,1,2,2.8,2.3,5c0.1,1,0.1,2.3,0.1,4.4c0,3.6,0,5.8,0,7c0,0.4,0,0.5,0.2,0.5c0.5,0,1.9-0.2,2.6-0.2c0.1,0,0.3,0.2,0.3,0.4
		c0,0.4-0.1,0.8-0.3,1.3c-0.1,0.3-0.1,0.3-0.4,0.3c-4.5,0-6,0.2-7.9,0.2c-0.3,0-0.5,0-0.6-0.2l-0.3-1c1.5-0.6,2-1,2.3-2.3
		c0.2-2.3,0.3-4.5,0.3-6.8c0-2.8,0-4.2-1.2-5.4c-0.9-0.9-2.1-1.3-3.4-1.3c-1.5,0.2-2.9,0.6-4.1,1.3c-0.4,0.3-0.6,0.8-0.6,1.3
		c-0.1,1.7-0.1,8.8-0.1,11.6c0,0.7,0.1,0.8,2.8,1.2c0.3,0,0.4,0.2,0.3,0.4l-0.3,1.1h-4.3c-2,0-3.6,0.3-4.5,0.3
		c-0.1,0-0.2-0.1-0.1-0.3L373,111.3z"/>
</g>
<g>
	<path class="st0" d="M411.2,93.4c0.3,0.1,0.6,0.2,0.9,0.2c0.8,0,3.8-0.6,4.8-0.6c0.4,0.1,0.8,0.3,1,0.7c0,0.2,0.2,1.4,0.2,1.6
		s-0.3,0.6-0.9,0.6s-2,0-4.3,0c0.8,1.2,1.3,2.5,1.4,3.9c0,3.5-2.5,6.6-6.4,8.2c-1.4,0.5-2.8,1.2-4.1,1.8c-0.3,0.1-0.4,0.4-0.5,0.7
		c0,0.9,1.2,1.3,2.5,1.3c0.6,0,3.8-0.1,4.2-0.1c2-0.1,4,0.4,5.7,1.6c1,0.9,1.5,2.2,1.4,3.5c0,1.6-0.5,2.4-1.8,4
		c-1.6,2-3.7,3.6-6.1,4.5c-1.6,0.5-3.2,0.7-4.9,0.8c-5.4,0-7.5-2.6-7.5-4.7c-0.1-1.5,0.6-3,1.9-3.9c1.2-0.9,2.2-1.6,3.8-2.6
		c-2.2-1-3.4-1.7-3.4-3.2c0-0.4,0.1-0.7,0.4-1c1.5-1,3.1-1.8,4.8-2.6c-1.5-0.3-2.9-1-4-2c-1.4-1.3-2.2-3.1-2.3-5
		c0-3,1.6-5.1,3.9-6.7c1.6-1.2,3.6-1.9,5.6-2C408.7,92.5,410,92.8,411.2,93.4z M412.7,121.5c1-0.7,1.6-1.8,1.8-3
		c0.1-0.9-0.3-1.7-1-2.3c-1.3-0.7-2.8-1.1-4.3-1c-1.7,0-3.4,0.1-5,0.4c-0.8,0.2-1.5,0.6-2,1.2c-1,0.8-1.7,1.9-1.8,3.2
		c0,0.9,1.1,3.4,6.1,3.4C409.4,123.4,411.4,122.7,412.7,121.5z M409.7,96.8c-0.9-1.5-2.6-2.4-4.4-2.4c-1,0-1.9,0.4-2.5,1.1
		c-0.9,0.9-1.4,2.1-1.3,3.4c0,2,0.8,4,2.3,5.4c1,1,2.3,1.6,3.7,1.7c1.8,0,3.5-1.1,3.5-4.4C411,99.9,410.6,98.3,409.7,96.8z"/>
</g>
<g>
	<path class="st0" d="M422.8,96.1c1.8-1.6,5.3-3.4,7.6-3.4c1.2,0,2.4,0.2,3.5,0.5c0.2,0,0.5-0.2,0.5-0.4c0-0.7,0.1-1.7,0.1-3.5
		c0.1-2.3,0-4.5-0.1-6.8c0-0.7-0.1-0.9-2.4-1.3c-0.2,0-0.4-0.2-0.4-0.4l-0.1-0.3c0-0.2,0-0.3,0.1-0.4c2-0.8,4-1.7,5.9-2.8
		c0.2-0.1,0.4-0.1,0.6-0.1c0.2,0,0.4,0.4,0.4,0.8c0,4.5-0.3,14.8-0.3,20.5v6c0,1.8,0.1,3.5,0.3,5.3c0.1,0.7,0.4,0.8,0.7,0.8
		c0.8-0.1,1.5-0.4,2.3-0.7c0.3,0,0.5-0.1,0.5,0.1c0.1,0.5,0.2,1,0.3,1.4c0,0.4-0.3,0.4-0.6,0.6c-2,0.6-4,1-6,1.3
		c-0.5-0.1-0.9-0.5-1-1c0-0.8-0.1-1.9-0.1-2.6c-3.8,1.9-6.8,3-7.4,3c-1.9-0.1-3.8-0.9-5.1-2.3c-1.7-1.7-2.8-4-2.9-6.5
		C419.1,101,420.4,98.1,422.8,96.1z M424.7,96.5c-1.2,1.3-1.8,3-1.8,4.8c0,1.3,0.2,4.8,2.8,7c1.1,1,2.6,1.6,4.1,1.5
		c1.4-0.1,2.8-0.5,4-1.1c0.5-0.3,0.6-0.4,0.6-0.8c0.3-3.4,0.3-6.9,0-10.3c0-0.5-0.1-0.8-0.8-1.3c-1.6-1-3.4-1.5-5.3-1.4
		C426.9,95,425.6,95.5,424.7,96.5L424.7,96.5z"/>
</g>
<g>
	<path class="st0" d="M446.1,98.6c-0.3,0.1-0.6,0.1-0.9,0.2c-0.3-0.1-0.5-0.3-0.6-0.7c0-0.4,0.2-0.8,0.5-1.2c0.9-1.4,4.5-3.6,5.9-4
		c0.9-0.4,1.8-0.6,2.8-0.6c1.6-0.1,3.1,0.6,4.1,1.8c0.6,0.7,1,1.5,1,2.4c0,3.5-0.1,7-0.1,10.3c0,2.7,0.5,3.7,1.2,3.7
		c0.8-0.1,1.7-0.3,2.5-0.7c0.1-0.1,0.5,0.3,0.5,0.5l-0.1,0.8c0,0.2-0.1,0.4-0.3,0.6c-1.8,0.7-3.6,1.1-5.5,1.3
		c-0.9,0-1.6-0.4-2.1-2.6c-2,1-4.1,1.8-6.3,2.5c-1,0-2-0.4-2.9-1c-1-1-1.5-2.5-1.5-3.9c0-1,0.8-1.9,2.1-2.6c2.7-1.3,5.6-2.2,8.6-2.7
		c0.1-1.2,0.2-2.4,0.1-3.6c0-2.1-0.4-3.3-0.9-3.7c-0.8-0.6-1.8-0.8-2.8-0.8c-0.7,0-1.4,0.1-2,0.3c-0.2,0.2-0.4,0.5-0.4,2.1
		c0,0.3,0,0.6-0.3,0.7L446.1,98.6z M453.8,109.4c0.6-0.4,1-0.8,1.1-1.3s0.1-2.5,0.1-3.2c0-0.3-0.1-0.6-0.3-0.6c-3,0.4-4.8,1-5.9,1.9
		c-0.3,0.2-0.5,0.6-0.5,1.4c0,1.7,0.5,2.8,2.3,2.8C451.7,110.2,452.8,109.8,453.8,109.4L453.8,109.4z"/>
</g>
<g>
	<path class="st0" d="M464,112.1c0-0.3,0.1-0.6,0.2-0.9c0.4-0.2,0.8-0.3,1.2-0.4c1-0.3,1.2-0.7,1.3-1.3c0.3-6.1,0.5-14.8,0.5-18.8
		c0-3.5,0-6.1-0.1-7.6s-0.5-1.6-2.8-1.8c-0.2,0-0.2-0.1,0-1.1c0-0.1,0.1-0.2,0.5-0.3c2.1-0.7,4.1-1.6,6.1-2.5c0.1,0,0.1-0.1,0.2-0.1
		c0.1,0.1,0.1,0.2,0.1,0.4c-0.5,6.4-0.6,16.2-0.6,25.5c0,6.4,0.1,7.4,1.4,7.4c0.7,0,1.9-0.1,2.1-0.1s0.3,0,0.3,0.3
		c-0.1,0.5-0.1,0.9-0.3,1.3c0,0.2-0.2,0.2-0.4,0.2c-1.7,0-8,0.2-9.6,0.3c-0.1,0-0.2,0-0.2-0.2L464,112.1z"/>
</g>
</svg>
